<svg width="356" height="100" viewBox="0 0 356 100" fill="none" xmlns="http://www.w3.org/2000/svg">
<path d="M96.2339 44.1928L90.0689 33.8349C88.6445 31.4317 86.1244 30 83.3267 30C80.5291 30 78.009 31.4317 76.5846 33.8349L65.1163 53.1118C64.4808 54.1709 63.3705 54.8064 62.1361 54.8064C62.1361 54.8064 62.1361 54.8064 62.1288 54.8064C60.8943 54.8064 59.7767 54.1709 59.1485 53.1045L53.9184 44.2659C53.1441 42.9584 51.9315 42.038 50.5217 41.6289L53.8307 36.0701C54.4662 35.0183 55.5765 34.3828 56.811 34.3828C58.0455 34.3828 59.1558 35.0183 59.7913 36.0774L63.7358 42.7027C64.3567 43.74 65.7007 44.0833 66.738 43.4624C67.7752 42.8415 68.1185 41.4974 67.4976 40.4602L63.5532 33.8349C62.1288 31.4317 59.6087 30 56.811 30C54.0133 30 51.4933 31.4317 50.0689 33.8349L36.1609 57.2096C34.6415 59.759 34.6123 62.8196 36.0805 65.4054C37.5049 67.9109 40.0616 69.4083 42.903 69.4083H97.2347C100.083 69.4083 102.633 67.9109 104.057 65.4054C105.525 62.8269 105.496 59.759 103.977 57.2096L96.2339 44.1928ZM80.3464 36.0774C80.9746 35.0183 82.0922 34.3828 83.3267 34.3828C84.5612 34.3828 85.6715 35.0183 86.307 36.0774L89.5795 41.5705C88.1697 41.9795 86.9498 42.8999 86.1755 44.2221L80.9819 53.0606C80.3537 54.1271 79.2434 54.7699 78.0017 54.7699H77.9944C76.7599 54.7699 75.6423 54.1344 75.0141 53.0752L72.6255 49.0577L80.3464 36.0774ZM100.251 63.2432C99.6087 64.3828 98.5057 65.0329 97.2347 65.0329H42.903C41.632 65.0329 40.5364 64.3828 39.8862 63.2432C39.2069 62.0526 39.2215 60.6355 39.9228 59.4595L42.7862 54.6457L44.7584 51.3294L47.6364 46.5011C48.0163 45.8583 48.6372 45.7852 48.8928 45.7852C49.1558 45.7706 49.7694 45.851 50.1492 46.5011L55.372 55.3324C56.7964 57.7429 59.3165 59.1819 62.1215 59.1892C62.1288 59.1892 62.1288 59.1892 62.1361 59.1892C64.9337 59.1892 67.4538 57.7575 68.8855 55.3543L70.0762 53.3528L71.2522 55.3251C72.6839 57.7283 75.204 59.16 78.0017 59.16C78.009 59.16 78.0163 59.16 78.0236 59.16C80.8285 59.1527 83.3486 57.6991 84.773 55.2812L89.9666 46.4427C90.3464 45.7926 90.9746 45.7195 91.223 45.7195C91.223 45.7195 91.223 45.7195 91.2303 45.7195C91.486 45.7195 92.0995 45.7926 92.4867 46.4354L96.6357 53.4113L100.23 59.4595C100.916 60.6282 100.931 62.0453 100.251 63.2432Z" fill="#0FD08B"/>
<path fill-rule="evenodd" clip-rule="evenodd" d="M216.68 39.9341C216.68 38.1153 218.075 36.6836 219.894 36.6836C221.712 36.6836 223.129 38.1153 223.122 39.9341C223.122 41.753 221.712 43.1482 219.894 43.1482C218.075 43.1482 216.68 41.753 216.68 39.9341ZM158.024 45.5661C160.595 45.5661 162.392 46.6106 163.634 48.1373V46.0701H168.564V64.8137H163.634V62.7465C162.414 64.2586 160.595 65.3031 158.024 65.3031C152.859 65.3031 148.951 61.0665 148.951 55.4346C148.951 49.8028 152.859 45.5661 158.024 45.5661ZM154.116 55.4346C154.116 58.298 155.993 60.599 158.951 60.599C161.837 60.599 163.787 58.393 163.787 55.4346C163.787 52.4762 161.837 50.2703 158.951 50.2703C155.993 50.2703 154.116 52.5712 154.116 55.4346ZM138.425 59.2255L134.167 46.0699H128.842L124.642 59.1671L120.639 46.0699H115.262L121.61 64.8209H127.337L131.457 52.1474L135.613 64.8209H141.384L147.731 46.0699H142.45L138.425 59.2255ZM181.953 55.7047L176.811 46.0699H171.077L179.17 60.8325L174.072 69.9998H179.565L192.479 46.0699H186.95L181.953 55.7047ZM205.35 45.5661C203.224 45.5661 201.172 46.2819 199.835 48.2761V46.0701H194.919V64.821H199.967V54.5434C199.967 51.7166 201.764 50.3068 203.933 50.3068C206.234 50.3068 207.593 51.7969 207.593 54.5069V64.821H212.64V52.878C212.64 48.5245 209.601 45.5661 205.35 45.5661ZM222.45 46.0699H217.403V64.8209H222.45V46.0699ZM243.984 48.7801C245.438 46.3988 247.899 45.5661 250.354 45.5661C254.766 45.5661 257.746 48.5245 257.739 52.878V64.821H252.706V54.5069C252.706 51.7969 251.333 50.3068 249.046 50.3068C246.877 50.3068 245.08 51.7166 245.08 54.5434V64.821H240.032V54.5069C240.032 51.7969 238.674 50.3068 236.373 50.3068C234.203 50.3068 232.406 51.7166 232.406 54.5434V64.821H227.359V46.0701H232.275V48.2761C233.612 46.2819 235.664 45.5661 237.79 45.5661C240.5 45.5661 242.728 46.786 243.984 48.7801ZM278.024 37.2828H271.983L268.097 43.3821H272.91L278.024 37.2828ZM261.347 55.4346C261.347 49.7808 265.642 45.5661 271.464 45.5661C277.308 45.5661 281.617 49.7808 281.625 55.4346C281.625 61.0884 277.308 65.3031 271.464 65.3031C265.642 65.3031 261.347 61.0884 261.347 55.4346ZM266.49 55.4346C266.49 58.4733 268.623 60.599 271.464 60.599C274.306 60.599 276.453 58.4733 276.453 55.4346C276.453 52.3959 274.306 50.2703 271.464 50.2703C268.615 50.2703 266.49 52.3959 266.49 55.4346ZM292.859 59.4958L288.002 46.0699H282.509L289.923 64.8209H295.745L303.078 46.0699H297.753L292.859 59.4958ZM304.97 39.9341C304.97 38.1153 306.365 36.6836 308.184 36.6836C310.003 36.6836 311.413 38.1153 311.413 39.9341C311.413 41.753 310.003 43.1482 308.184 43.1482C306.365 43.1482 304.97 41.753 304.97 39.9341ZM310.734 46.0699H305.686V64.8209H310.734V46.0699ZM315.511 36.9539H320.558V64.821H315.511V36.9539Z" fill="#2A1846"/>
</svg>
